<svg width="11" height="11" viewBox="0 0 11 11" fill="none" xmlns="http://www.w3.org/2000/svg">
<g clip-path="url(#clip0_65_276)">
<path fill-rule="evenodd" clip-rule="evenodd" d="M1.1645 1.1631C1.18865 0.690324 1.59149 0.326651 2.06426 0.350807L8.9838 0.70436C9.42279 0.72679 9.77366 1.07766 9.79608 1.51665L10.1496 8.43619C10.1738 8.90896 9.81012 9.31179 9.33735 9.33595C8.86458 9.36011 8.46174 8.99643 8.43759 8.52366L8.18245 3.53018L1.66697 10.0457C1.33224 10.3804 0.789521 10.3804 0.454787 10.0457C0.120052 9.71093 0.120052 9.16821 0.454787 8.83348L6.97026 2.318L1.97678 2.06286C1.50402 2.0387 1.14034 1.63587 1.1645 1.1631Z" fill="#c3c3c3" fill-opacity="1"/>
</g>
<defs>
<clipPath id="clip0_65_276">
<rect width="11" height="11" fill="white"/>
</clipPath>
</defs>
</svg>
