<svg width="32" height="32" viewBox="0 0 32 32" fill="none" xmlns="http://www.w3.org/2000/svg">
<g clip-path="url(#clip0_250_8)">
<path d="M15.2242 0.018506C6.77299 0.420902 0.103831 7.45909 0.129468 15.9198C0.137274 18.4967 0.759389 20.929 1.85683 23.0782L0.171866 31.2572C0.0807184 31.6996 0.479747 32.087 0.919261 31.9829L8.93374 30.0841C10.9928 31.1098 13.3055 31.7022 15.7532 31.7396C24.3911 31.8715 31.5936 25.0128 31.8628 16.3781C32.1514 7.12228 24.5123 -0.423839 15.2242 0.018506ZM24.7871 24.6578C22.44 27.0049 19.3194 28.2975 16.0001 28.2975C14.0565 28.2975 12.1958 27.8615 10.4693 27.0015L9.35321 26.4455L4.4395 27.6097L5.47381 22.5887L4.92394 21.512C4.02769 19.7567 3.57326 17.8587 3.57326 15.8707C3.57326 12.5513 4.86585 9.43074 7.21296 7.08355C9.5391 4.75742 12.7107 3.44377 16.0003 3.44377C19.3196 3.44385 22.4401 4.73645 24.7872 7.08348C27.1343 9.43059 28.4269 12.5512 28.427 15.8705C28.4269 19.1602 27.1133 22.3318 24.7871 24.6578Z" fill="white"/>
<path d="M23.7022 19.3125L20.6281 18.4298C20.2239 18.3138 19.7887 18.4285 19.4942 18.7285L18.7424 19.4945C18.4254 19.8174 17.9444 19.9212 17.5249 19.7514C16.0707 19.1629 13.0116 16.443 12.2304 15.0826C12.005 14.6901 12.0423 14.1995 12.319 13.8414L12.9753 12.9923C13.2325 12.6596 13.2867 12.2128 13.1167 11.8283L11.8233 8.90304C11.5135 8.2024 10.6182 7.99845 10.0333 8.49314C9.1753 9.2188 8.15729 10.3215 8.03354 11.5432C7.81535 13.697 8.73907 16.4122 12.2321 19.6724C16.2676 23.4388 19.4992 23.9364 21.6032 23.4267C22.7966 23.1377 23.7503 21.9789 24.3523 21.03C24.7626 20.3831 24.4386 19.524 23.7022 19.3125Z" fill="white"/>
</g>
<defs>
<clipPath id="clip0_250_8">
<rect width="32" height="32" fill="white"/>
</clipPath>
</defs>
</svg>
